<?xml version="1.0" encoding="utf-8"?>
<!-- Generator: Adobe Illustrator 22.1.0, SVG Export Plug-In . SVG Version: 6.00 Build 0)  -->
<svg version="1.1" id="Layer_1" xmlns="http://www.w3.org/2000/svg" xmlns:xlink="http://www.w3.org/1999/xlink" x="0px" y="0px"
	 viewBox="0 0 81.7 81" style="enable-background:new 0 0 81.7 81;" xml:space="preserve">
<style type="text/css">
	.st0{fill:#9FD0F0;}
	.st1{clip-path:url(#SVGID_2_);fill:#00ABD4;}
	.st2{clip-path:url(#SVGID_4_);fill:#00ABD4;}
	.st3{clip-path:url(#SVGID_6_);fill:#00ABD4;}
	.st4{clip-path:url(#SVGID_8_);}
	.st5{fill:#0D7BC0;}
	.st6{fill:none;stroke:#F5EB10;stroke-width:3;stroke-miterlimit:10;}
</style>
<path class="st0" d="M3,40c0,20.8,16.9,37.7,37.7,37.7S78.4,60.8,78.4,40S61.5,2.3,40.7,2.3C19.9,2.3,3,19.2,3,40"/>
<g>
	<g>
		<defs>
			<path id="SVGID_1_" d="M3,40c0,20.8,16.9,37.7,37.7,37.7S78.4,60.8,78.4,40S61.5,2.3,40.7,2.3C19.9,2.3,3,19.2,3,40"/>
		</defs>
		<clipPath id="SVGID_2_">
			<use xlink:href="#SVGID_1_"  style="overflow:visible;"/>
		</clipPath>
		<path class="st1" d="M55.9,47.1c-0.6-0.8-1-1.4-1.1-2c-0.1,0.6-0.5,1.2-1.1,2c-0.4,0.6-1.2,1.3-1.2,2.7c0,1.4,1,2.6,2.3,2.6
			s2.3-1.2,2.3-2.6C57.2,48.4,56.4,47.7,55.9,47.1"/>
	</g>
	<g>
		<defs>
			<path id="SVGID_3_" d="M3,40c0,20.8,16.9,37.7,37.7,37.7S78.4,60.8,78.4,40S61.5,2.3,40.7,2.3C19.9,2.3,3,19.2,3,40"/>
		</defs>
		<clipPath id="SVGID_4_">
			<use xlink:href="#SVGID_3_"  style="overflow:visible;"/>
		</clipPath>
		<path class="st2" d="M55.9,57.7c-0.5-0.7-0.9-1.3-1-1.9c-0.1,0.6-0.5,1.2-1,1.9c-0.4,0.6-1.2,1.2-1.2,2.5s1,2.4,2.2,2.4
			s2.2-1.1,2.2-2.4C57,58.9,56.3,58.2,55.9,57.7"/>
	</g>
	<g>
		<defs>
			<path id="SVGID_5_" d="M3,40c0,20.8,16.9,37.7,37.7,37.7S78.4,60.8,78.4,40S61.5,2.3,40.7,2.3C19.9,2.3,3,19.2,3,40"/>
		</defs>
		<clipPath id="SVGID_6_">
			<use xlink:href="#SVGID_5_"  style="overflow:visible;"/>
		</clipPath>
		<path class="st3" d="M55.6,68c-0.4-0.5-0.7-1-0.7-1.4c-0.1,0.4-0.4,0.8-0.7,1.4c-0.3,0.4-0.8,0.9-0.8,1.8c0,1,0.7,1.7,1.6,1.7
			s1.6-0.8,1.6-1.7C56.4,68.9,55.9,68.5,55.6,68"/>
	</g>
	<g>
		<defs>
			<path id="SVGID_7_" d="M3,40c0,20.8,16.9,37.7,37.7,37.7S78.4,60.8,78.4,40S61.5,2.3,40.7,2.3C19.9,2.3,3,19.2,3,40"/>
		</defs>
		<clipPath id="SVGID_8_">
			<use xlink:href="#SVGID_7_"  style="overflow:visible;"/>
		</clipPath>
		<g class="st4">
			<path class="st5" d="M51.2,28.4V33h7.5v-4.6c0-3.4-1.4-6.7-4-9.2c-2.9-2.8-7-4.4-11.3-4.4c-0.2,0-0.4,0-0.5,0L36.7,15
				c-8.6,0.2-15.6,7.5-15.6,16.1V82h7.5V31.1c0-4.6,3.8-8.5,8.4-8.6c0,0,6.5-0.2,6.6-0.2c2.3,0,4.5,0.8,6,2.3
				C50.6,25.7,51.2,27,51.2,28.4z"/>
			<path class="st5" d="M47.7,34l0.1,8.2c0,1.7,1.4,3.1,3.2,3.1l7.9-0.1c1.7,0,3.1-1.4,3.1-3.2l-0.1-8H47.7z"/>
		</g>
	</g>
</g>
<g>
	
		<image style="overflow:visible;opacity:0.85;enable-background:new    ;" width="408" height="408" xlink:href="E9CBDD17.png"  transform="matrix(0.2368 0 0 0.2368 -5.5934 -6.34)">
	</image>
	<g>
		<path class="st6" d="M3,40c0,20.8,16.9,37.7,37.7,37.7S78.4,60.8,78.4,40S61.5,2.3,40.7,2.3C19.9,2.3,3,19.2,3,40"/>
	</g>
</g>
</svg>
